# xmcd
#
# Track frame offsets: 
#        150
#        16011
#        35579
#        54404
#        72628
#        90150
#        107796
#        123731
#        143956
#        171037
#        190533
#        212096
#        229353
#
# Disc length: 3334 seconds
#
# Revision: 0
# Processed by: cddbd v1.5.2PL0 Copyright (c) Steve Scherf et al.
# Submitted via: ExactAudioCopy v1.3
#
DISCID=b20d040d
DTITLE=Die Höchste Eisenbahn - Wer bringt mich jetzt zu den anderen
DYEAR=2016
DGENRE=
TTITLE0=Wir haben so lange nachgedacht bis wir wütend waren
TTITLE1=Lisbeth
TTITLE2=Gierig
TTITLE3=Timmy
TTITLE4=Jemand ruft an
TTITLE5=Wer bring mich jetzt zu den anderen
TTITLE6=Nicht atmen
TTITLE7=Gute Leute
TTITLE8=Stern
TTITLE9=Beschweren
TTITLE10=Woher denn
TTITLE11=Blume
TTITLE12=Erobert and Geklaut
EXTD=
EXTT0=
EXTT1=
EXTT2=
EXTT3=
EXTT4=
EXTT5=
EXTT6=
EXTT7=
EXTT8=
EXTT9=
EXTT10=
EXTT11=
EXTT12=
PLAYORDER=
